/* XPM */ 
static const char *vlc_xpm[] = {
"16 16 100 2",
"  	c None",
"! 	c black",
"# 	c #427E8E",
"$ 	c #407B89",
"% 	c #336572",
"& 	c #478FA1",
"' 	c #367281",
"( 	c #2D6371",
") 	c #A0C3CC",
"* 	c #588590",
"+ 	c #60828A",
", 	c #FFFBFA",
"- 	c #C6C4C3",
". 	c #B8B5B4",
"0 	c #BCBBBC",
"1 	c #FCF8F6",
"2 	c #CAC5C3",
"3 	c #BAB9BB",
"4 	c #8FA5AE",
"5 	c #4B91A3",
"6 	c #7CA9B4",
"7 	c #7696A2",
"8 	c #748787",
"9 	c #987B44",
": 	c #F48217",
"; 	c #5E9DAD",
"< 	c #29768F",
"= 	c #396567",
"> 	c #B57C31",
"? 	c #B3A181",
"@ 	c #DCDAD3",
"A 	c #F1D2CD",
"B 	c #FA785F",
"C 	c #DEEAED",
"D 	c #86ACBD",
"E 	c #B6A643",
"F 	c #CBBD98",
"G 	c #B0C5D4",
"H 	c #C3DBE2",
"I 	c #F3F9FA",
"J 	c #EFDCD4",
"K 	c #CFE0E3",
"L 	c white",
"M 	c #EDE2D0",
"N 	c #EECD56",
"O 	c #D3D5D8",
"P 	c #DDD4D4",
"Q 	c #4BC7E3",
"R 	c #8BDAEB",
"S 	c #F4F8F0",
"T 	c #C48CE3",
"U 	c #3F8698",
"V 	c #5696A7",
"W 	c #BDD6E1",
"X 	c #D3CEB2",
"Y 	c #EACA59",
"Z 	c #CCD0D9",
"[ 	c #CDC9C9",
"] 	c #32C0E0",
"^ 	c #07BFE9",
"_ 	c #D2EBE7",
"` 	c #DAA5E1",
"a 	c #407A89",
"b 	c #4B92A3",
"c 	c #45899B",
"d 	c #468FA5",
"e 	c #4B8083",
"f 	c #D0B940",
"g 	c #A8B5B7",
"h 	c #96ADB3",
"i 	c #40B7D1",
"j 	c #72B5C3",
"k 	c #B1CDCF",
"l 	c #A88BD1",
"m 	c #346672",
"n 	c #468694",
"o 	c #478797",
"p 	c #346D86",
"q 	c #709446",
"r 	c #81B48D",
"s 	c #9FAEBF",
"t 	c #97B0B9",
"u 	c #ABB8BD",
"v 	c #88B9C4",
"w 	c #184C58",
"x 	c #2D5761",
"y 	c #488C9D",
"z 	c #478496",
"{ 	c #368393",
"| 	c #22A675",
"} 	c #64B898",
"~ 	c #8AB1A9",
" !	c #75A9B0",
"!!	c #1B6B78",
"#!	c #254851",
"$!	c #448493",
"%!	c #3D7081",
"&!	c #1D3C42",
"'!	c #00471F",
"(!	c #05994E",
"              #                 ",
"              $ %               ",
"            & ' (               ",
"            ) * +               ",
"            , - . 0             ",
"            1 2 3 4             ",
"          5 6 7 8 9 :           ",
"          ; < = > ? @ A B       ",
"          C D E F G H I J       ",
"        K L M N O P Q R S T     ",
"      U V W X Y Z [ ] ^ _ `     ",
"    a b c d e f g h i j k l     ",
"      m n o p q r s t u v w     ",
"        x y z { | } ~  !!!      ",
"          #!$!%!&!'!(!          ",
"                                "};