/* XPM */ 
static const char *vlc_xmas_xpm[] = {
"32 32 361 2",
"  	c None",
"! 	c black",
"# 	c #458294",
"$ 	c #478798",
"% 	c #396F7D",
"& 	c #376B78",
"' 	c #498A9B",
"( 	c #366B78",
") 	c #356875",
"* 	c #4F93A6",
"+ 	c #478697",
", 	c #366A77",
"- 	c #4F94A6",
". 	c #458292",
"0 	c #366976",
"1 	c #4C92A5",
"2 	c #437F8E",
"3 	c #346976",
"4 	c #84B2BD",
"5 	c #448C9F",
"6 	c #357485",
"7 	c #2D6573",
"8 	c #2C6472",
"9 	c #F6F9F9",
": 	c #BED5DB",
"; 	c #83A1A9",
"< 	c #708D94",
"= 	c #779096",
"> 	c #97A3A5",
"? 	c #FBFBFB",
"@ 	c #FDFAF9",
"A 	c #D4D0CF",
"B 	c #BEBBBA",
"C 	c #BCB8B7",
"D 	c #BAB8B7",
"E 	c #B5B4B4",
"F 	c #EFEFEF",
"G 	c #C6C6C6",
"H 	c #B6B6B6",
"I 	c #B3B3B3",
"J 	c #E0EAEB",
"K 	c #FFFFFE",
"L 	c #EBEBEB",
"M 	c #C5C5C5",
"N 	c #B7B7B7",
"O 	c #B8B6B5",
"P 	c #B1CED4",
"Q 	c white",
"R 	c #EDEBEA",
"S 	c #C9C6C5",
"T 	c #BCBAB9",
"U 	c #BDB9B7",
"V 	c #BCB9B8",
"W 	c #578599",
"X 	c #4E92A4",
"Y 	c #9EC4CD",
"Z 	c #BECDCF",
"[ 	c #B5BABB",
"] 	c #AEB2B2",
"^ 	c #A5ABAC",
"_ 	c #8B9FA9",
"` 	c #548192",
"a 	c #456965",
"b 	c #4C91A2",
"c 	c #4A90A2",
"d 	c #468DA1",
"e 	c #407F8F",
"f 	c #447783",
"g 	c #427280",
"h 	c #2F6C82",
"i 	c #536A5F",
"j 	c #B17220",
"k 	c #E67F0F",
"l 	c #FF8C16",
"m 	c #FD891F",
"n 	c #FF5E3B",
"o 	c #FF4F3A",
"p 	c #5093A6",
"q 	c #3D7C8C",
"r 	c #366E7D",
"s 	c #25677E",
"t 	c #7A6F47",
"u 	c #F47F05",
"v 	c #E5943D",
"w 	c #ACA289",
"x 	c #CACECA",
"y 	c #EFEBE2",
"z 	c #ECD0CA",
"{ 	c #F59488",
"| 	c #FE603B",
"} 	c #75AAB7",
"~ 	c #3E889D",
" !	c #478CA0",
"!!	c #3C7989",
"#!	c #2C6E86",
"$!	c #717055",
"%!	c #FB8003",
"&!	c #C29D6A",
"'!	c #89AFC1",
"(!	c #86ABB9",
")!	c #B8C7CE",
"*!	c #EEEFF2",
"+!	c #E8F1F3",
",!	c #E7F7F9",
"-!	c #F0BAB4",
".!	c #FE5B43",
"0!	c #EEF3F3",
"1!	c #A0C4CD",
"2!	c #629BAA",
"3!	c #3A778D",
"4!	c #467876",
"5!	c #E4B00D",
"6!	c #D1A354",
"7!	c #8CB0C5",
"8!	c #9CB4BA",
"9!	c #B1BDC0",
":!	c #D4D2D0",
";!	c #EFEAE8",
"<!	c #E9EAEA",
"=!	c #E9EBEC",
">!	c #E7F9FB",
"?!	c #F1B2A7",
"@!	c #FE5338",
"A!	c #FAF9F9",
"B!	c #FBFAF9",
"C!	c #E8E9EA",
"D!	c #AFBDCD",
"E!	c #C3B663",
"F!	c #FCCE11",
"G!	c #C5CCC2",
"H!	c #C5CAD1",
"I!	c #D0D0CF",
"J!	c #DAD2D1",
"K!	c #98CCD8",
"L!	c #BAE0E8",
"M!	c #FBEEEB",
"N!	c #E8EAEA",
"O!	c #E9ECEC",
"P!	c #EBEFE9",
"Q!	c #E17896",
"R!	c #F4F6F7",
"S!	c #F9F8F8",
"T!	c #FCFCFC",
"U!	c #EDECEC",
"V!	c #D0CFD5",
"W!	c #F4C932",
"X!	c #ECCC58",
"Y!	c #CFD3E1",
"Z!	c #D3D2D2",
"[!	c #D2D2D2",
"]!	c #DED2CF",
"^!	c #75C8DC",
"_!	c #11C3EC",
"`!	c #BDE1EA",
"a!	c #FAEDEA",
"b!	c #ECF5ED",
"c!	c #CFAFEB",
"d!	c #DFEBEE",
"e!	c #FFFFFD",
"f!	c #FCFBFB",
"g!	c #E3E4E8",
"h!	c #CCC9C0",
"i!	c #FAC60D",
"j!	c #E4CF83",
"k!	c #CDD2DF",
"l!	c #D0D0D0",
"m!	c #DDD2CF",
"n!	c #7FCBDA",
"o!	c #00BEEB",
"p!	c #13C2EA",
"q!	c #ADDFEA",
"r!	c #F5ECEA",
"s!	c #ECF1EB",
"t!	c #DFD0E7",
"u!	c #B255DA",
"v!	c #3D8698",
"w!	c #8CB8C3",
"x!	c #F4F8F8",
"y!	c #E5E4E9",
"z!	c #D0C9B5",
"{!	c #FCC705",
"|!	c #DFD095",
"}!	c #CED1DE",
"~!	c #D1D1D0",
" #	c #E1D4D1",
"!#	c #7FCADB",
"##	c #00C0EB",
"$#	c #00BFEA",
"%#	c #07C1EC",
"&#	c #B5E2EC",
"'#	c #F7F2EB",
"(#	c #E3DAEC",
")#	c #B166C4",
"*#	c #488A9B",
"+#	c #4A8D9E",
",#	c #4B90A2",
"-#	c #4C91A3",
".#	c #4C90A2",
"0#	c #428A9D",
"1#	c #6CA4B3",
"2#	c #AECCD4",
"3#	c #C1CDD4",
"4#	c #C7C4B3",
"5#	c #FDC706",
"6#	c #E1CF90",
"7#	c #CDCECE",
"8#	c #C4CACB",
"9#	c #BDBEBF",
":#	c #63B9CD",
";#	c #00C1ED",
"<#	c #00C2EE",
"=#	c #2DBEDF",
">#	c #B5D3DA",
"?#	c #F1F2EB",
"@#	c #E7DDEC",
"A#	c #B763CE",
"B#	c #4B8E9F",
"C#	c #5097AA",
"D#	c #4C92A4",
"E#	c #438393",
"F#	c #4A8D9F",
"G#	c #4B90A3",
"H#	c #4A90A4",
"I#	c #448A9E",
"J#	c #3E7D90",
"K#	c #4A7D87",
"L#	c #E5BE0D",
"M#	c #CEC168",
"N#	c #98B2C5",
"O#	c #9AB1B6",
"P#	c #94ADB3",
"Q#	c #9BAAAE",
"R#	c #59B4C8",
"S#	c #00C4F2",
"T#	c #37B9D5",
"U#	c #9BB6BC",
"V#	c #A2BEC6",
"W#	c #B1D1D1",
"X#	c #D4C6E1",
"Y#	c #C65AEF",
"Z#	c #254951",
"[#	c #47889A",
"]#	c #4F97AA",
"^#	c #3C7885",
"_#	c #458494",
"`#	c #4F95A8",
"a#	c #5396A9",
"b#	c #4C8FA1",
"c#	c #3E7C8D",
"d#	c #2E6D88",
"e#	c #B4AA2B",
"f#	c #E8C632",
"g#	c #93ABBA",
"h#	c #93ADB4",
"i#	c #95AEB4",
"j#	c #9EADB0",
"k#	c #57B6CB",
"l#	c #34BCD9",
"m#	c #97A9AD",
"n#	c #9CB2B7",
"o#	c #9EC0C9",
"p#	c #9EC5C8",
"q#	c #A49DD6",
"r#	c #6D4C9A",
"s#	c #1D393F",
"t#	c #428090",
"u#	c #468998",
"v#	c #376C76",
"w#	c #478797",
"x#	c #579BAE",
"y#	c #4B8EA1",
"z#	c #407C8B",
"{#	c #306E8B",
"|#	c #748A59",
"}#	c #FACC02",
"~#	c #9FB397",
" $	c #95ADBD",
"!$	c #95AEB3",
"#$	c #97AEB4",
"$$	c #86B0B9",
"%$	c #92ABB0",
"&$	c #98ACAF",
"'$	c #9CBDC4",
"($	c #A3C3CD",
")$	c #A0C3CA",
"*$	c #379AB2",
"+$	c #163D43",
",$	c #182D32",
"-$	c #3C7482",
".$	c #468898",
"0$	c #39707C",
"1$	c #417886",
"2$	c #427F8F",
"3$	c #3D7787",
"4$	c #387183",
"5$	c #426E7A",
"6$	c #4AA143",
"7$	c #30B066",
"8$	c #96ADB6",
"9$	c #9DAEB8",
":$	c #93ABB0",
";$	c #97ACB0",
"<$	c #98B2B8",
"=$	c #9BBDC6",
">$	c #9EBBC3",
"?$	c #A3B2B6",
"@$	c #53A6B4",
"A$	c #025560",
"B$	c #101F22",
"C$	c #366875",
"D$	c #4B90A1",
"E$	c #448493",
"F$	c #3D7784",
"G$	c #3A717E",
"H$	c #396F7A",
"I$	c #37697A",
"J$	c #227277",
"K$	c #00A552",
"L$	c #2EAC6D",
"M$	c #90B0B2",
"N$	c #A6B7C6",
"O$	c #A2B9C5",
"P$	c #9EB3BF",
"Q$	c #9EABB0",
"R$	c #9EA4A7",
"S$	c #5A9EA9",
"T$	c #056A79",
"U$	c #0B1618",
"V$	c #2E5963",
"W$	c #5098AB",
"X$	c #4F8CA4",
"Y$	c #3F9897",
"Z$	c #08A95C",
"[$	c #18B766",
"]$	c #54BA92",
"^$	c #72A998",
"_$	c #7AA393",
"`$	c #70A1A3",
"a$	c #379BAB",
"b$	c #028598",
"c$	c #264952",
"d$	c #468696",
"e$	c #4F97A9",
"f$	c #4E96A8",
"g$	c #498C9D",
"h$	c #417387",
"i$	c #29565D",
"j$	c #066136",
"k$	c #00843A",
"l$	c #019E4C",
"m$	c #03AB53",
"n$	c #019390",
"o$	c #008FAA",
"p$	c #1F3B42",
"q$	c #366974",
"r$	c #3A6F7C",
"s$	c #32616D",
"t$	c #224249",
"u$	c #112124",
"v$	c #101E21",
"w$	c #091213",
"                              #                                 ",
"                            $ % &                               ",
"                            ' ( )                               ",
"                          * + ( ,                               ",
"                          - . , , 0                             ",
"                          1 2 , , 3                             ",
"                        4 5 6 7 8 ,                             ",
"                        9 : ; < = >                             ",
"                        ? @ A B C D E                           ",
"                        ? F G H I I I                           ",
"                      J K L M N I I O                           ",
"                      P Q R S T O U V W                         ",
"                      X Y Z [ ] ^ _ ` a                         ",
"                    b c d e f g h i j k l m n o                 ",
"                    c X p q r s t u v w x y z { |               ",
"                    } ~  !!!#!$!%!&!'!(!)!*!+!,!-!.!            ",
"                    0!1!2!3!4!5!6!7!8!9!:!;!<!=!>!?!@!          ",
"                  A!B!Q C!D!E!F!G!H!I!J!K!L!M!N!O!P!Q!          ",
"                  R!S!T!U!V!W!X!Y!Z![!]!^!_!`!a!<!b!c!          ",
"                  d!e!f!g!h!i!j!k!l!l!m!n!o!p!q!r!s!t!u!        ",
"              $ v!w!x!Q y!z!{!|!}!~!Z! #!###$#%#&#'#(#)#        ",
"        *#+#,#-#.#0#1#2#3#4#5#6#}!7#8#9#:#;#<#=#>#?#@#A#        ",
"        B#C#D#E#F#G#H#I#J#K#L#M#N#O#P#Q#R#S#T#U#V#W#X#Y#        ",
"        Z#[#]#^#_#`#a#b#c#d#e#f#g#h#i#j#k#l#m#n#o#p#q#r#        ",
"          s#t#u#v#w#x#y#z#{#|#}#~# $!$#$$$%$&$'$($)$*$+$        ",
"            ,$-$.$0$1$2$3$4$5$6$7$8$9$:$;$<$=$>$?$@$A$          ",
"              B$C$D$E$F$G$H$I$J$K$L$M$N$O$P$Q$R$S$T$            ",
"                U$V$G#W$-#F#+#X$Y$Z$[$]$^$_$`$a$b$              ",
"                    c$d$e$]#f$g$h$i$j$k$l$m$n$o$                ",
"                      p$q$r$s$t$u$                              ",
"                        U$v$w$                                  ",
"                                                                "};